<?xml version="1.0" encoding="UTF-8"?>
<svg xmlns="http://www.w3.org/2000/svg" version="1.1" width="100" height="100" viewBox="0 0 100 100"><rect x="0" y="0" width="100" height="100" fill="#ffffff"/><g transform="scale(3.448)"><g transform="translate(0,0)"><path fill-rule="evenodd" d="M8 0L8 1L9 1L9 2L8 2L8 5L9 5L9 4L11 4L11 5L10 5L10 10L9 10L9 8L8 8L8 9L7 9L7 8L6 8L6 9L5 9L5 10L4 10L4 8L0 8L0 9L1 9L1 10L2 10L2 9L3 9L3 10L4 10L4 11L1 11L1 12L2 12L2 13L0 13L0 14L2 14L2 15L3 15L3 16L0 16L0 17L1 17L1 18L0 18L0 19L1 19L1 18L2 18L2 20L1 20L1 21L2 21L2 20L3 20L3 21L5 21L5 20L3 20L3 19L9 19L9 20L10 20L10 19L11 19L11 20L12 20L12 19L11 19L11 18L9 18L9 17L11 17L11 16L12 16L12 17L13 17L13 16L12 16L12 14L13 14L13 15L14 15L14 18L13 18L13 21L15 21L15 22L14 22L14 23L11 23L11 21L10 21L10 22L9 22L9 21L8 21L8 22L9 22L9 25L8 25L8 29L10 29L10 28L9 28L9 26L10 26L10 27L11 27L11 26L12 26L12 28L11 28L11 29L12 29L12 28L14 28L14 27L15 27L15 29L17 29L17 28L16 28L16 27L15 27L15 26L16 26L16 24L17 24L17 26L18 26L18 25L19 25L19 27L18 27L18 29L22 29L22 28L24 28L24 29L25 29L25 28L26 28L26 29L28 29L28 27L29 27L29 25L28 25L28 27L27 27L27 28L26 28L26 26L27 26L27 24L26 24L26 23L28 23L28 24L29 24L29 23L28 23L28 21L27 21L27 19L26 19L26 20L25 20L25 18L26 18L26 17L25 17L25 16L24 16L24 15L23 15L23 20L21 20L21 19L22 19L22 18L21 18L21 17L20 17L20 18L21 18L21 19L19 19L19 18L18 18L18 17L19 17L19 16L18 16L18 17L17 17L17 18L18 18L18 19L17 19L17 21L15 21L15 20L16 20L16 15L14 15L14 14L17 14L17 15L18 15L18 12L17 12L17 13L15 13L15 12L16 12L16 11L15 11L15 12L14 12L14 14L13 14L13 12L12 12L12 13L11 13L11 11L14 11L14 10L15 10L15 9L14 9L14 8L13 8L13 6L14 6L14 7L15 7L15 8L16 8L16 10L17 10L17 9L19 9L19 10L20 10L20 11L19 11L19 12L20 12L20 11L21 11L21 10L23 10L23 9L22 9L22 8L21 8L21 10L20 10L20 9L19 9L19 6L20 6L20 7L21 7L21 4L19 4L19 6L18 6L18 7L17 7L17 6L16 6L16 7L15 7L15 6L14 6L14 5L18 5L18 3L20 3L20 2L21 2L21 0L20 0L20 2L19 2L19 0L17 0L17 1L16 1L16 0L15 0L15 1L16 1L16 2L15 2L15 3L14 3L14 5L13 5L13 3L12 3L12 4L11 4L11 2L14 2L14 0L12 0L12 1L11 1L11 0L10 0L10 1L9 1L9 0ZM16 2L16 3L15 3L15 4L17 4L17 3L18 3L18 2ZM12 5L12 6L11 6L11 8L12 8L12 6L13 6L13 5ZM8 6L8 7L9 7L9 6ZM24 8L24 10L25 10L25 11L24 11L24 12L25 12L25 11L28 11L28 14L26 14L26 13L27 13L27 12L26 12L26 13L25 13L25 14L26 14L26 15L29 15L29 11L28 11L28 10L29 10L29 8L28 8L28 9L27 9L27 8ZM6 9L6 10L5 10L5 11L6 11L6 12L7 12L7 11L9 11L9 10L7 10L7 9ZM11 9L11 10L12 10L12 9ZM25 9L25 10L26 10L26 9ZM6 10L6 11L7 11L7 10ZM22 11L22 12L21 12L21 13L19 13L19 15L20 15L20 16L21 16L21 15L22 15L22 14L23 14L23 13L22 13L22 12L23 12L23 11ZM3 12L3 15L5 15L5 16L3 16L3 18L4 18L4 17L5 17L5 18L7 18L7 17L5 17L5 16L7 16L7 15L5 15L5 14L4 14L4 13L5 13L5 12ZM6 13L6 14L8 14L8 13ZM10 13L10 14L9 14L9 15L8 15L8 16L9 16L9 15L10 15L10 16L11 16L11 15L10 15L10 14L11 14L11 13ZM21 13L21 14L22 14L22 13ZM27 16L27 18L28 18L28 16ZM24 17L24 18L25 18L25 17ZM28 19L28 20L29 20L29 19ZM6 20L6 21L7 21L7 20ZM19 20L19 22L18 22L18 21L17 21L17 22L15 22L15 24L12 24L12 26L13 26L13 27L14 27L14 26L15 26L15 24L16 24L16 23L17 23L17 24L18 24L18 23L19 23L19 25L20 25L20 23L19 23L19 22L20 22L20 20ZM21 21L21 24L24 24L24 21ZM17 22L17 23L18 23L18 22ZM22 22L22 23L23 23L23 22ZM10 24L10 25L11 25L11 24ZM25 24L25 26L24 26L24 27L25 27L25 26L26 26L26 24ZM13 25L13 26L14 26L14 25ZM22 25L22 26L20 26L20 27L19 27L19 28L20 28L20 27L21 27L21 28L22 28L22 26L23 26L23 25ZM0 0L0 7L7 7L7 0ZM1 1L1 6L6 6L6 1ZM2 2L2 5L5 5L5 2ZM22 0L22 7L29 7L29 0ZM23 1L23 6L28 6L28 1ZM24 2L24 5L27 5L27 2ZM0 22L0 29L7 29L7 22ZM1 23L1 28L6 28L6 23ZM2 24L2 27L5 27L5 24Z" fill="#000000"/></g></g></svg>
